<svg width="21" height="20" viewBox="0 0 21 20" fill="none" xmlns="http://www.w3.org/2000/svg">
<path d="M9.0907 1.53712C9.8225 0.613066 11.2242 0.61134 11.958 1.53392L17.0656 7.95525C17.8336 8.92047 17.1538 10.3466 15.9207 10.3587L14.533 10.3725L14.5318 15.0372C14.5317 15.2776 14.4843 15.5156 14.3922 15.7377C14.3001 15.9598 14.1652 16.1616 13.9951 16.3315C13.825 16.5014 13.6231 16.6361 13.4009 16.728C13.1787 16.8198 12.9406 16.867 12.7002 16.8668L8.34189 16.8628C7.85693 16.8623 7.39202 16.6692 7.04929 16.3261C6.70655 15.983 6.51402 15.5179 6.51398 15.033L6.51349 10.3735L5.15809 10.3727C3.91952 10.372 3.22863 8.94266 3.99691 7.97177L9.0907 1.53712V1.53712ZM11.2758 2.07618C11.1859 1.96316 11.0716 1.87192 10.9415 1.80926C10.8114 1.74659 10.6688 1.71413 10.5244 1.7143C10.38 1.71446 10.2375 1.74725 10.1076 1.81021C9.97762 1.87318 9.86357 1.96468 9.77394 2.0779L4.68016 8.51255C4.36392 8.91259 4.64812 9.50094 5.15833 9.50143L6.94951 9.50217C7.00674 9.50216 7.06341 9.51343 7.11629 9.53533C7.16916 9.55722 7.21721 9.58932 7.25767 9.62979C7.29814 9.67026 7.33024 9.7183 7.35214 9.77117C7.37403 9.82405 7.3853 9.88072 7.38529 9.93795L7.38505 15.033C7.38512 15.287 7.48604 15.5307 7.66564 15.7103C7.84523 15.89 8.08882 15.9911 8.34287 15.9913L12.7012 15.9952C12.8271 15.9953 12.9518 15.9706 13.0681 15.9225C13.1845 15.8744 13.2903 15.8038 13.3793 15.7148C13.4684 15.6258 13.5391 15.5201 13.5873 15.4038C13.6356 15.2875 13.6604 15.1628 13.6605 15.0369L13.6617 9.94091C13.6617 9.82609 13.707 9.71591 13.7877 9.6343C13.8685 9.5527 13.9782 9.50628 14.093 9.50513L15.9121 9.48738C16.4198 9.48245 16.6996 8.89509 16.3836 8.49776L11.2758 2.07618V2.07618Z" fill="#6F6F6F"/>
</svg>
