<svg width="21" height="20" viewBox="0 0 21 20" fill="none" xmlns="http://www.w3.org/2000/svg">
<path d="M11.9598 18.349C11.228 19.2731 9.82625 19.2748 9.09247 18.3522L3.98489 11.9309C3.21685 10.9657 3.89665 9.53955 5.1298 9.52748L6.51749 9.51367L6.51872 4.84901C6.51877 4.60859 6.5662 4.37054 6.65829 4.14845C6.75038 3.92637 6.88532 3.7246 7.05542 3.55469C7.22551 3.38478 7.42742 3.25005 7.64961 3.1582C7.87179 3.06635 8.1099 3.01918 8.35032 3.01938L12.7086 3.02333C13.1936 3.02389 13.6585 3.21692 14.0012 3.56003C14.3439 3.90313 14.5365 4.36825 14.5365 4.8532L14.537 9.51269L15.8924 9.51343C17.131 9.51417 17.8219 10.9435 17.0536 11.9144L11.9598 18.349V18.349ZM9.77474 17.81C9.86462 17.923 9.97888 18.0142 10.109 18.0769C10.2391 18.1396 10.3817 18.172 10.5261 18.1719C10.6705 18.1717 10.813 18.1389 10.9429 18.076C11.0729 18.013 11.1869 17.9215 11.2765 17.8083L16.3703 11.3736C16.6866 10.9736 16.4024 10.3852 15.8922 10.3847L14.101 10.384C14.0437 10.384 13.9871 10.3727 13.9342 10.3508C13.8813 10.3289 13.8333 10.2968 13.7928 10.2564C13.7524 10.2159 13.7203 10.1679 13.6984 10.115C13.6765 10.0621 13.6652 10.0055 13.6652 9.94822L13.6654 4.8532C13.6654 4.59915 13.5645 4.35551 13.3849 4.17582C13.2053 3.99613 12.9617 3.89509 12.7076 3.89489L8.34934 3.89094C8.22341 3.89085 8.09871 3.91556 7.98234 3.96368C7.86598 4.01179 7.76023 4.08236 7.67114 4.17136C7.58206 4.26035 7.51138 4.36602 7.46314 4.48234C7.41491 4.59866 7.39007 4.72334 7.39003 4.84926L7.3888 9.94526C7.38882 10.0601 7.34352 10.1703 7.26275 10.2519C7.18198 10.3335 7.07226 10.3799 6.95745 10.381L5.13842 10.3988C4.63067 10.4037 4.35091 10.9911 4.6669 11.3884L9.77474 17.81V17.81Z" fill="#6F6F6F"/>
</svg>
