<svg width="16" height="15" viewBox="0 0 16 15" fill="none" xmlns="http://www.w3.org/2000/svg">
<path d="M8.11472 10.5859H12.7067C13.543 10.5859 14.2001 9.9204 14.2001 9.12427V2.8616C14.2001 2.06547 13.543 1.4 12.7067 1.4H2.62672C1.79046 1.4 1.13339 2.06547 1.13339 2.8616V9.12427C1.13339 9.9204 1.79046 10.5859 2.62672 10.5859H4.12006V13.5333H4.12286L4.12472 13.5324L8.11566 10.5859H8.11472ZM4.68006 14.2828C4.48137 14.4293 4.23312 14.4919 3.98874 14.4571C3.74437 14.4224 3.52339 14.2931 3.37339 14.0971C3.25314 13.9386 3.18792 13.7453 3.18766 13.5464V11.5192H2.62766C1.28739 11.5192 0.200989 10.4468 0.200989 9.12427V2.8616C0.200056 1.53907 1.28646 0.466667 2.62672 0.466667H12.7067C14.047 0.466667 15.1334 1.53907 15.1334 2.8616V9.12427C15.1334 10.4477 14.047 11.5192 12.7067 11.5192H8.42272L4.67912 14.2828H4.68006Z" fill="#6F6F6F"/>
</svg>
